<?xml version="1.0" encoding="UTF-8"?>
<svg width="32px" height="32px" viewBox="0 0 32 32" version="1.1" xmlns="http://www.w3.org/2000/svg" xmlns:xlink="http://www.w3.org/1999/xlink">
    <title>calendar icon</title>
    <g id="Icon-Exports" stroke="none" stroke-width="1" fill="none" fill-rule="evenodd">
        <g id="calendar-icon" fill="#000000">
            <path d="M9.5,0 C9.77614237,-5.07265313e-17 10,0.223857625 10,0.5 L10,3 L22,3 L22,0.5 C22,0.223857625 22.2238576,5.07265313e-17 22.5,0 L27.5,0 C27.7761424,-5.07265313e-17 28,0.223857625 28,0.5 L28,3 L31,3 C31.5522847,3 32,3.44771525 32,4 L32,31 C32,31.5522847 31.5522847,32 31,32 L1,32 C0.44771525,32 6.76353751e-17,31.5522847 0,31 L0,4 C-6.76353751e-17,3.44771525 0.44771525,3 1,3 L4,3 L4,0.5 C4,0.223857625 4.22385763,5.07265313e-17 4.5,0 L9.5,0 Z M29,11 L3,11 L3,29 L29,29 L29,11 Z M11.5,13 L11.5,27 L9.5,27 L9.5,13 L11.5,13 Z M13.5,15 L13.5,13 L22.5,13 L22.5,15 C21.0474579,16.7746465 20.0985173,18.4413132 19.6531782,20 C19.2078391,21.5586868 18.8234464,23.8920201 18.5,27 L16.5,27 C16.8525483,23.9012545 17.2528112,21.5679212 17.7007887,20 C18.1487661,18.4320788 19.0106734,16.7654122 20.2865105,15 L13.5,15 Z" id="Combined-Shape"></path>
        </g>
    </g>
</svg>