<?xml version="1.0" encoding="UTF-8"?>
<svg width="32px" height="32px" viewBox="0 0 32 32" version="1.1" xmlns="http://www.w3.org/2000/svg" xmlns:xlink="http://www.w3.org/1999/xlink">
    <title>chart icon</title>
    <g id="Icon-Exports" stroke="none" stroke-width="1" fill="none" fill-rule="evenodd">
        <g id="chart-icon" fill="#000000">
            <path d="M26,10 L30,10 L30,30 L32,30 L32,32 L0,32 L0,0 L2,0 L2,30 L5,30 L5,26 L9,26 L9,30 L12,30 L12,17 L16,17 L16,30 L19,30 L19,21 L23,21 L23,30 L26,30 L26,10 Z M28,0 C29.1045695,0 30,0.8954305 30,2 C30,3.1045695 29.1045695,4 28,4 L28.102,3.996 L22.7588123,14.0470522 C22.8902484,14.2891261 22.9731656,14.5613711 22.9945143,14.8507377 L23,15 C23,16.1045695 22.1045695,17 21,17 C19.8954305,17 19,16.1045695 19,15 C19,14.8266209 19.0220617,14.6583945 19.063531,14.4979751 L14.7318681,10.8618568 C14.5052027,10.9510262 14.2583206,11 14,11 L14.015,10.999 L8.85705592,19.2560444 C8.93165802,19.4420952 8.97911122,19.64196 8.99451426,19.8507377 L9,20 C9,21.1045695 8.1045695,22 7,22 C5.8954305,22 5,21.1045695 5,20 C5,18.8954305 5.8954305,18 7,18 C7.09216209,18 7.1828682,18.0062338 7.2717197,18.0183026 L12.2746255,10.0121083 C12.1000912,9.71521513 12,9.36929634 12,9 C12,7.8954305 12.8954305,7 14,7 C15.1045695,7 16,7.8954305 16,9 C16,9.10111761 15.9924959,9.20048255 15.9780142,9.29756829 L20.4749689,13.0696257 C20.6422847,13.0242266 20.8183131,13 21,13 C21.0161743,13 21.0323037,13.000192 21.0483862,13.0005738 L26.3209502,3.08707789 C26.1179153,2.77412293 26,2.40083176 26,2 C26,0.8954305 26.8954305,0 28,0 Z" id="Combined-Shape"></path>
        </g>
    </g>
</svg>