<?xml version="1.0" encoding="UTF-8"?>
<svg width="34px" height="34px" viewBox="0 0 34 34" version="1.1" xmlns="http://www.w3.org/2000/svg" xmlns:xlink="http://www.w3.org/1999/xlink">
    <title>checkmark icon blue with border copy 2</title>
    <g id="Icon-Exports" stroke="none" stroke-width="1" fill="none" fill-rule="evenodd">
        <g id="checkmark-icon-blue-with-border-copy-2" fill="#000000">
            <path d="M17,0 C26.3888407,0 34,7.61115925 34,17 C34,26.3888407 26.3888407,34 17,34 C7.61115925,34 0,26.3888407 0,17 C0,7.61115925 7.61115925,0 17,0 Z M17,1 C8.163444,1 1,8.163444 1,17 C1,25.836556 8.163444,33 17,33 C25.836556,33 33,25.836556 33,17 C33,8.163444 25.836556,1 17,1 Z M17,3 C24.7319865,3 31,9.2680135 31,17 C31,24.7319865 24.7319865,31 17,31 C9.2680135,31 3,24.7319865 3,17 C3,9.2680135 9.2680135,3 17,3 Z M24.7781746,11.4644661 C24.3876503,11.0739418 23.7544853,11.0739418 23.363961,11.4644661 L23.363961,11.4644661 L14.3129942,20.5154329 C14.2348894,20.5935378 14.1082564,20.5935378 14.0301515,20.5154329 L14.0301515,20.5154329 L10.636039,17.1213203 C10.2455147,16.7307961 9.6123497,16.7307961 9.22182541,17.1213203 C8.83130112,17.5118446 8.83130112,18.1450096 9.22182541,18.5355339 L9.22182541,18.5355339 L13.4644661,22.7781746 C13.8549904,23.1686989 14.4881554,23.1686989 14.8786797,22.7781746 L14.8786797,22.7781746 L24.7781746,12.8786797 C25.1686989,12.4881554 25.1686989,11.8549904 24.7781746,11.4644661 Z" id="Combined-Shape"></path>
        </g>
    </g>
</svg>