<?xml version="1.0" encoding="UTF-8"?>
<svg width="32px" height="32px" viewBox="0 0 32 32" version="1.1" xmlns="http://www.w3.org/2000/svg" xmlns:xlink="http://www.w3.org/1999/xlink">
    <title>clock icon</title>
    <g id="Icon-Exports" stroke="none" stroke-width="1" fill="none" fill-rule="evenodd">
        <g id="clock-icon" fill="#000000">
            <path d="M16,0 C24.836556,0 32,7.163444 32,16 C32,24.836556 24.836556,32 16,32 C7.163444,32 0,24.836556 0,16 C0,7.163444 7.163444,0 16,0 Z M16,1.25 C7.85379994,1.25 1.25,7.85379994 1.25,16 C1.25,24.1462001 7.85379994,30.75 16,30.75 C24.1462001,30.75 30.75,24.1462001 30.75,16 C30.75,7.85379994 24.1462001,1.25 16,1.25 Z M16,3 C23.1797017,3 29,8.82029825 29,16 C29,23.1797017 23.1797017,29 16,29 C8.82029825,29 3,23.1797017 3,16 C3,8.82029825 8.82029825,3 16,3 Z M16,5 C15.4871642,5 15.0644928,5.38604019 15.0067277,5.88337887 L15,6 L14.9999275,14.2676063 C14.4021661,14.6134261 14,15.2597476 14,16 C14,17.1045695 14.8954305,18 16,18 C16.6829269,18 17.2859077,17.65771 17.6467419,17.1353304 L17.7318119,17.0010775 L25.5,17 C26.0522847,17 26.5,16.5522847 26.5,16 C26.5,15.4871642 26.1139598,15.0644928 25.6166211,15.0067277 L25.5,15 L17.7323937,14.9999275 C17.5862021,14.7472304 17.3863084,14.5294877 17.1483183,14.3623054 L17.0010775,14.2681881 L17,6 C17,5.44771525 16.5522847,5 16,5 Z" id="Combined-Shape"></path>
        </g>
    </g>
</svg>