<svg width="32" height="32" viewBox="0 0 32 32" fill="none" xmlns="http://www.w3.org/2000/svg">
<rect width="9.80656" height="20.8001" transform="matrix(-0.707083 -0.70713 0.707083 -0.70713 12.3281 26.6077)" fill="black"/>
<path d="M3.74151 28.3913C3.54801 28.4118 3.38648 28.2455 3.41261 28.0527L4.33336 21.2551C4.36668 21.0091 4.66725 20.9077 4.84276 21.0832L7.87938 24.1201L10.8999 27.1408C11.0783 27.3192 10.9703 27.6247 10.7194 27.6513L3.74151 28.3913Z" fill="black"/>
<path d="M28.0242 10.9106L21.0901 3.97613L24.8539 0.212137C24.971 0.094976 25.161 0.0949758 25.2781 0.212137L31.7879 6.72237C31.9051 6.83953 31.9051 7.02949 31.7879 7.14665L28.0242 10.9106Z" fill="black"/>
</svg>
