<?xml version="1.0" encoding="UTF-8"?>
<svg width="33px" height="32px" viewBox="0 0 33 32" version="1.1" xmlns="http://www.w3.org/2000/svg" xmlns:xlink="http://www.w3.org/1999/xlink">
    <title>goals icon</title>
    <g id="Icon-Exports" stroke="none" stroke-width="1" fill="none" fill-rule="evenodd">
        <g id="goals-icon" fill="#000000">
            <path d="M29.5862853,15.9446367 L29.5862853,32 L26.2568172,32 L26.2568172,18.7128028 L29.5862853,15.9446367 Z M24.0371719,20.6353662 L24.0371719,32 L20.7077038,32 L20.7077038,22.8364157 L24.0371719,20.6353662 Z M18.4880585,23.9723183 L18.4880585,32 L15.1585904,32 L15.1585904,25.7127506 L18.4880585,23.9723183 Z M12.9389451,26.7518797 L12.9389451,32 L9.60947702,32 L9.60947702,27.9861592 L12.9389451,26.7518797 Z M7.38983166,28.6782007 L7.38983166,32 L4.06036361,32 L4.06036361,29.6598796 L7.38983166,28.6782007 Z M32.135297,8.73782847 L31.3655024,15.9446367 L29.8074095,14.621 L29.5469928,14.8623103 C27.6580755,16.5972595 26.2605914,17.827875 25.3545405,18.554157 C23.1311407,20.3364136 21.0088438,21.7195487 19.0488281,22.7989828 C17.1349896,23.8529859 14.6598507,25.2174833 11.3338762,26.5018442 C9.8935328,27.0580483 7.45437721,27.7912865 4.01640946,28.7015587 C10.0412231,25.1576864 14.457486,22.3066079 17.2651979,20.1483231 C20.0566169,18.0025626 23.0737208,15.1720254 26.3165095,11.6567117 L24.5246344,10.136847 L32.135297,8.73782847 Z M8.82933655,17.3141197 C8.93140488,17.4680383 8.88937195,17.6755567 8.73545337,17.777625 C8.72436043,17.7849811 8.71283818,17.7916683 8.70094814,17.797651 L4.64553834,19.838195 C4.47229064,19.9253673 4.26117849,19.8555894 4.17400615,19.6823417 L4.17018695,19.674511 C4.0845131,19.4931717 4.15842521,19.2765734 4.33707994,19.1854338 L8.28528839,17.1712785 C8.47658359,17.0736904 8.71065335,17.135146 8.82933655,17.3141197 Z M5.82368264,16.2939177 C5.92866783,16.4472682 5.88945999,16.6566906 5.73610949,16.7616758 C5.73084724,16.7652784 5.72548365,16.7687307 5.7200252,16.7720284 L0.685784238,19.8134998 C0.514919958,19.9167286 0.292776764,19.8628036 0.188257372,19.6927257 C0.0849133956,19.5245605 0.137461392,19.3044588 0.305626607,19.2011148 C0.306550457,19.2005471 0.307476885,19.1999836 0.308405864,19.1994242 L5.31730586,16.1837259 C5.488646,16.0805674 5.7107023,16.1288887 5.82368264,16.2939177 Z M4.82639277,15.3081269 L4.83059908,15.3149249 C4.93651243,15.4904241 4.8839299,15.7183126 4.71182935,15.8296635 L1.68419614,17.7885744 C1.52133772,17.8939455 1.30389472,17.8473429 1.19852359,17.6844845 C1.19200263,17.6744059 1.18600267,17.6639996 1.18054733,17.6533066 C1.08029957,17.4568114 1.14606384,17.2163037 1.33234694,17.0981573 L4.32991867,15.1970071 C4.49770108,15.0905945 4.71998011,15.1403445 4.82639277,15.3081269 Z M16.2728933,2.05823404 L19.8300429,2.49670614 C20.2888853,2.55326536 20.6432054,2.91488685 20.6997953,3.36308491 C20.7020683,3.3677689 20.7048897,3.37304948 20.7077038,3.37837588 C20.8921919,3.72756117 21.2791825,3.97029942 21.5400708,4.15427626 C21.8522724,4.37443887 22.2086341,4.68806748 23.0065404,4.83587227 C23.0837499,4.83785893 23.3209993,4.8363428 23.5654863,4.83587227 L24.0371719,4.83587227 C25.0791939,4.38506073 26.7965599,3.61427215 29.1892698,2.52350653 C29.583716,2.34368278 30.050217,2.46548039 30.3064171,2.81517445 C30.5321507,3.12328394 30.4653718,3.55604924 30.1572624,3.78178281 C30.1435398,3.79183654 30.1294509,3.80138053 30.1150245,3.8103953 L19.2504095,10.598 L16.2684131,14.9210949 L16.1997954,14.8634087 C16.169493,14.928329 16.1283973,14.9895583 16.0764356,15.0444413 C15.9890407,15.1367495 15.8776596,15.2028875 15.7547814,15.2354393 L11.4260783,16.3821596 C11.0621358,16.4785719 10.6889445,16.2616958 10.5925322,15.8977533 C10.5774421,15.8407903 10.5698015,15.7821112 10.5698015,15.7231834 L10.5698015,15.5471285 C10.5698015,15.1220493 10.8385328,14.7434255 11.2397991,14.6031484 L14.5834815,13.4342434 C14.6694329,13.404196 14.7577164,13.3864368 14.8460226,13.3804715 L15.6334095,10.809 L7.89717919,15.6955206 C7.63258294,15.8626108 7.30502415,15.8962015 7.012022,15.7862922 L6.69619248,15.6678201 L6.60481058,15.4726683 C6.41315437,15.0633746 6.51983972,14.5764059 6.86506421,14.2847322 L13.9594095,8.29 L14.0487677,8.1384383 C14.0533245,8.15865933 14.0607199,8.17796831 14.0709539,8.19636524 L14.1398087,8.1384383 C14.2672753,8.24603553 14.3873726,8.33938702 14.5001006,8.41849276 C14.6691753,8.45179165 14.8895446,8.47078493 15.1585904,8.47413844 C15.6368645,8.48009986 16.0082656,8.36656888 16.2727936,8.1335455 C16.5822179,7.57378885 16.7792794,6.90023055 16.8233244,6.64519869 C16.9227114,6.06972275 16.9620653,5.7132389 16.941386,5.57574713 C17.1236129,5.19044596 17.4503618,4.81124945 17.9216326,4.43815762 L16.4824095,4.233 L16.0741081,7.00886635 C16.0113482,7.43507379 15.6456507,7.75086505 15.2148473,7.75086505 C14.8224683,7.75086505 14.5043823,7.43277904 14.5043823,7.04040005 C14.5043823,7.02758081 14.5047292,7.01476391 14.5054227,7.00196344 L14.7203826,3.03444911 C14.7462034,2.55787611 15.1052064,2.16597377 15.5776951,2.09857196 L15.7940651,2.06770618 C15.8701237,2.0568562 15.9451781,2.0574213 16.0174948,2.0681009 L16.0043316,2.07103874 C16.0924714,2.05152029 16.1832963,2.04718987 16.2728933,2.05823404 Z M13.8268032,3.41581604 L13.7357175,7.36414605 L12.1376111,8.73782847 C11.2361578,8.76058902 10.3934464,8.48218869 9.60947702,7.90262748 C9.11473441,7.53688154 8.67227082,6.58180514 8.02848124,5.79914686 C7.77757473,5.49411853 7.33347848,5.15915239 6.69619248,4.79424843 L13.8268032,3.41581604 Z M23.7597162,0 C24.9855925,0 25.9793616,0.991480139 25.9793616,2.21453287 C25.9793616,3.43758561 24.9855925,4.42906574 23.7597162,4.42906574 C22.5338399,4.42906574 21.5400708,3.43758561 21.5400708,2.21453287 C21.5400708,0.991480139 22.5338399,0 23.7597162,0 Z" id="Combined-Shape"></path>
        </g>
    </g>
</svg>