<?xml version="1.0" encoding="UTF-8"?>
<svg width="15px" height="12px" viewBox="0 0 15 12" version="1.1" xmlns="http://www.w3.org/2000/svg" xmlns:xlink="http://www.w3.org/1999/xlink">
    <title>left arrow</title>
    <g id="Icon-Exports" stroke="none" stroke-width="1" fill="none" fill-rule="evenodd">
        <g id="left-arrow" transform="translate(0.000000, -1.000000)" fill="#000000">
            <path d="M6.18718434,1.41033009 C6.48007755,1.7032233 6.48007755,2.17809704 6.18718434,2.47099026 L2.86057253,5.79666017 L13.6087572,5.79751442 C14.0229708,5.79751442 14.3587572,6.13330086 14.3587572,6.54751442 C14.3587572,6.96172798 14.0229708,7.29751442 13.6087572,7.29751442 L2.65757253,7.29666017 L6.18718434,10.8265242 C6.48007755,11.1194174 6.48007755,11.5942911 6.18718434,11.8871843 C5.89429112,12.1800776 5.41941738,12.1800776 5.12652416,11.8871843 L0.530330086,7.29099026 C0.355464641,7.11612481 0.284998759,6.8763938 0.318932438,6.64925033 C0.28479264,6.42182276 0.355208616,6.18164563 0.530330086,6.00652416 L5.12652416,1.41033009 C5.41941738,1.11743687 5.89429112,1.11743687 6.18718434,1.41033009 Z" id="Combined-Shape"></path>
        </g>
    </g>
</svg>