<?xml version="1.0" encoding="UTF-8"?>
<svg width="15px" height="12px" viewBox="0 0 15 12" version="1.1" xmlns="http://www.w3.org/2000/svg" xmlns:xlink="http://www.w3.org/1999/xlink">
    <title>right arrow</title>
    <g id="Icon-Exports" stroke="none" stroke-width="1" fill="none" fill-rule="evenodd">
        <g id="right-arrow" transform="translate(0.000000, -1.000000)" fill="#000000">
            <path d="M9.23223305,1.41033009 L13.8284271,6.00652416 C14.0032926,6.18138961 14.0737585,6.42112062 14.0398248,6.64826409 C14.0739646,6.87569166 14.0035486,7.11586879 13.8284271,7.29099026 L9.23223305,11.8871843 C8.93933983,12.1800776 8.46446609,12.1800776 8.17157288,11.8871843 C7.87867966,11.5942911 7.87867966,11.1194174 8.17157288,10.8265242 L11.497,7.49966017 L0.75,7.5 C0.335786438,7.5 5.07265313e-17,7.16421356 0,6.75 C-5.07265313e-17,6.33578644 0.335786438,6 0.75,6 L11.7,5.99966017 L8.17157288,2.47099026 C7.87867966,2.17809704 7.87867966,1.7032233 8.17157288,1.41033009 C8.46446609,1.11743687 8.93933983,1.11743687 9.23223305,1.41033009 Z" id="Combined-Shape"></path>
        </g>
    </g>
</svg>