<?xml version="1.0" encoding="UTF-8"?>
<svg width="32px" height="32px" viewBox="0 0 32 32" version="1.1" xmlns="http://www.w3.org/2000/svg" xmlns:xlink="http://www.w3.org/1999/xlink">
    <title>settings icon</title>
    <g id="Icon-Exports" stroke="none" stroke-width="1" fill="none" fill-rule="evenodd">
        <g id="settings-icon" fill="#000000">
            <path d="M17.4808231,0 C17.9760389,-2.0199196e-16 18.3966678,0.362452166 18.4698451,0.852231418 L18.9916851,4.34147999 C20.0818904,4.61346616 21.112798,5.03612923 22.0612066,5.586176 L24.8553634,3.51230254 C25.2540484,3.21645629 25.809416,3.25790112 26.1597739,3.60964541 L28.1048401,5.56240814 C28.4531305,5.91207673 28.4942366,6.46355038 28.2016346,6.86099018 L26.1979388,9.58251591 C26.9529928,10.7849862 27.5006863,12.1318576 27.7906197,13.572531 L31.1489144,14.0783302 C31.638174,14.1520095 32,14.572404 32,15.0671803 L32,17.8332251 C32,18.3280014 31.638174,18.7483959 31.1489144,18.8220752 L27.5355038,19.3668415 C27.183658,20.5565567 26.6525125,21.6688386 25.9735126,22.6721176 L27.85046,25.2229675 C28.143062,25.6204073 28.101956,26.171881 27.7536655,26.5215496 L25.8085993,28.4743123 C25.4582414,28.8260566 24.9028738,28.8675014 24.5041888,28.5716552 L21.7270496,26.5109654 C20.8103283,27.0038865 19.8219303,27.3799597 18.7816056,27.6193569 L18.2545393,31.1477686 C18.1813619,31.6375478 17.760733,32 17.2655173,32 L14.5191769,32 C14.0239611,32 13.6033322,31.6375478 13.5301549,31.1477686 L12.986313,27.5071529 C11.8413394,27.1960764 10.7647297,26.7180016 9.78401938,26.1005728 L6.92933079,28.219091 C6.53064579,28.5149373 5.9752782,28.4734924 5.62492026,28.1217481 L3.67985406,26.1689854 C3.33156363,25.8193168 3.29045758,25.2678432 3.58305962,24.8704034 L5.76484835,21.9068696 C5.31705922,21.1242168 4.95487117,20.2859161 4.69110971,19.404844 L0.851085563,18.8257058 C0.361825985,18.7520265 -1.39522228e-15,18.331632 -1.6778595e-15,17.8368557 L-1.5084881e-15,15.0708108 C-1.1296311e-15,14.5760345 0.361825985,14.1556401 0.851085563,14.0819607 L4.43057514,13.5434551 C4.65901839,12.4227247 5.04351674,11.359066 5.56028108,10.3763621 L3.23188504,7.21355433 C2.939283,6.81611454 2.98038906,6.26464088 3.32867948,5.91497229 L5.27374569,3.96220956 C5.62410362,3.61046528 6.17947122,3.56902044 6.57815621,3.86486669 L9.47327985,6.01233957 C10.6017174,5.25191908 11.8667415,4.6799964 13.2236207,4.34147999 L13.7454607,0.852231418 C13.8186381,0.362452166 14.239267,-2.4209725e-16 14.7344827,0 L17.4808231,0 Z M16.1076529,7.97761613 C11.7191024,7.97761613 8.16147937,11.5493165 8.16147937,15.9552323 C8.16147937,20.361148 11.7191024,23.9328484 16.1076529,23.9328484 C20.4962034,23.9328484 24.0538265,20.361148 24.0538265,15.9552323 C24.0538265,11.5493165 20.4962034,7.97761613 16.1076529,7.97761613 Z" id="Combined-Shape"></path>
        </g>
    </g>
</svg>